<?xml version="1.0" standalone="no"?>
<!DOCTYPE svg PUBLIC "-//W3C//DTD SVG 20010904//EN"
 "http://www.w3.org/TR/2001/REC-SVG-20010904/DTD/svg10.dtd">
<svg version="1.0" xmlns="http://www.w3.org/2000/svg"
 width="96.000000pt" height="96.000000pt" viewBox="0 0 96.000000 96.000000"
 preserveAspectRatio="xMidYMid meet">

<g transform="translate(0.000000,96.000000) scale(0.100000,-0.100000)"
fill="#000000" stroke="none">
<path d="M364 741 l-98 -141 -102 0 c-139 0 -137 4 -90 -168 63 -233 77 -273
97 -293 18 -18 35 -19 309 -19 274 0 291 1 309 19 20 20 34 60 97 293 47 172
49 168 -90 168 l-102 0 -95 138 c-65 95 -101 138 -116 140 -18 3 -39 -22 -119
-137z m174 -55 c29 -41 52 -77 52 -80 0 -3 -49 -6 -110 -6 -60 0 -110 2 -110
5 0 9 104 155 110 155 4 0 30 -33 58 -74z m-3 -271 c50 -49 15 -135 -55 -135
-41 0 -80 39 -80 80 0 19 9 40 25 55 15 16 36 25 55 25 19 0 40 -9 55 -25z"/>
</g>
</svg>
