<?xml version="1.0" standalone="no"?>
<!DOCTYPE svg PUBLIC "-//W3C//DTD SVG 20010904//EN"
 "http://www.w3.org/TR/2001/REC-SVG-20010904/DTD/svg10.dtd">
<svg version="1.0" xmlns="http://www.w3.org/2000/svg"
 width="96.000000pt" height="96.000000pt" viewBox="0 0 96.000000 96.000000"
 preserveAspectRatio="xMidYMid meet">

<g transform="translate(0.000000,96.000000) scale(0.100000,-0.100000)"
fill="#000000" stroke="none">
<path d="M415 826 c-101 -44 -125 -178 -46 -257 65 -65 157 -65 222 0 124 124
-15 327 -176 257z"/>
<path d="M273 360 c-60 -21 -103 -49 -133 -87 -15 -20 -20 -40 -20 -89 l0 -64
360 0 360 0 0 65 c0 58 -3 68 -31 99 -31 36 -109 78 -166 91 -26 5 -39 1 -69
-22 -31 -23 -47 -28 -94 -28 -46 0 -63 5 -93 28 -42 32 -46 32 -114 7z"/>
</g>
</svg>
